<?xml version="1.0" encoding="UTF-8"?>
<svg version="1.1" viewBox="0 0 1400 356" xml:space="preserve" xmlns="http://www.w3.org/2000/svg"><path d="m1324.5 85.882c38.304 0.41599 41.375 0.53444 56.262 17.364-707.12 0.14778-706.99 0.27773-1360.7 0.0519 18.788-13.686 22.393-14.63 64.048-16.95 622.01-0.15669 622.06-0.11702 1240.4-0.46543z" stroke="#000" stroke-width="1.0016"/><path d="m514.31 129.45c2.48 0.55 2.48 0.55 3.97 2.08 11.39 21.722 11.348 21.771 31.8 66.36 9.6485 19.586 9.6889 19.606 28.03 59.19 3.4178 7.5179 3.3443 7.5074 5.69 10.92 20.642-42.441 40.729-85.184 59.84-128.34 1.4377-3.6887 2.1414-6.6887 5.1956-9.2929 3.3453 0.0417 3.3453 0.0233 6.8443 0.33925 8.9309 59.822 17.935 118.82 32.11 178.3 11.036 2.6913 17.433 0.32045 20 3.99-0.37 2.44-0.33329 2.44-0.88988 6.0645-40.909-0.11717-40.938-0.13106-60.147-0.238 0-4 0-4 1.6067-8.8765 2.29-4.7 1.13-9 0.41-14.05-4.3398-34.709-4.3667-34.701-11.98-95.89h-2c-24.706 55.492-24.599 56.087-53.246 118.81-3.6005 0.0857-3.6005 0.0857-6.7268 0.0398-29.027-58.693-29.083-58.543-56.028-113.86-2.4 3.85-2.7 8.04-3.23 12.45-1.2241 9.7545-2.4191 19.513-3.62 29.27-2.5648 20.72-2.5572 20.816-6.15 62.28 9.8358 2.0162 9.8522 1.9871 19 5v4c-2.5 1.25-4.22 1.14-7.02 1.15-15.163 0.0317-30.327 0.1-45.49 0.1-2.3147-0.20838-4.543-0.98092-6.49-2.25 0.38-1.94 0.38-1.94 1-4 6.2341-1.4979 6.2235-1.3431 14-3 18.03-106.47 18.031-106.42 25.58-159.85 2.397-15.797 1.8126-19.685 7.94-20.7z" stroke="#000" stroke-width="1.0016"/><path d="m1382.8 345c1.0612 13.083-30.502 8.0996-31.902 10.23-668.37-0.43031-668.6-0.44738-1280.6 1.2804-18.08 0.09-34.38-2.73-51.5-8.51v-3c685.71-1.0845 686-1.096 1352.3-1.13 4.02 0.01 7.73 0.12 11.66 1.13z" stroke="#000" stroke-width="1.0016"/><path d="m975.89 129.51c235.18-24.301 214.91 158.89 115.33 186.74-37.529 3.0357-37.56 3.0033-122.68 2.2036l0.24592-6.4536c4.03-1.95 7.51-2.27 11.91-2.37 4.4808-0.92774 5.4598-5.3478 6.5-16.66-0.0251-49.888-0.12055-49.882-1.41-151.96-7.1749-3.8504-13.341-1.4549-21-4l-1-3c3.43-4.53 6.78-4.57 12.1-4.49zm45.9 17.49c0.6602 67.569 0.6083 67.522 0.1967 151.78 5.7784 3.8002 38.128 16.329 72.483-0.59235 53.258-27.958 48.199-155.69-55.352-154.06-12.151-0.18195-12.095-0.17392-17.328 2.873zm-769.39-17.27c15.635-0.16485-3.8138 0.13215 57.6-0.1 18.83-0.1 38.79 1.6 53.79 14.37 38.832 44.455-17.978 82.647-17 91 25.049 22.28 43.925 71.707 85 77 1.24 2.04 1.24 2.04 2 4-1.64 1.98-2.62 2.91-5.14 3.52-7.58 0.53-15.12 0.6-22.7 0.4l-4.2-0.06c-53.484 0.90968-65.881-77.14-87.97-76.96-7.8964 0.062 1.2299-0.018-16.99 0.1 0.20137 14.88 0.3804 29.761 0.62 44.64 0.60132 36.079 14.935 15.649 24.38 27.36l-2 4-39.8 0.08c-7.7733 0.0285-15.547 0.0418-23.32 0.04-3.6763 0.10907-7.336-0.0657-10.88-1.12 0.37-2.43 0.37-2.43 1-5 14.13-3.5455 18.014-11.808 18.089-31.943 0.0911-26.459 0.0896-52.918 0.12103-79.377 0.0774-13.006-0.0243-26.014 0.05-39.02 0.16253-23.854-1.7779-23.618-22.27-25.66l-1-5c3.66-2.44 6.4-2.29 10.62-2.27zm44.39 16.27v79c23.944 8.014 33.809 1.0265 38.17-3 8.54-11.47 12.05-24.73 10.82-39-1.691-14.736-7.8629-33.732-28-37.99-7.81-1.08-13.29-1.2-21 1z" stroke="#000" stroke-width="1.0016"/><path d="m834.1 131.62c6.0087 0.73684 8.0345 8.2308 9.86 13.13 29.413 77.06 29.483 77.123 51.78 133.97 9.6164 28.325 9.5893 28.368 16.05 30.27 12.314 2.551 11.8 2.52 18 3 1.12 3.75 1.12 3.75 0 6-25.924 1.0668-25.935 1.0632-60.413 0.46833l-0.58733-6.4683 4-1c-14.524-42.313-14.361-42.407-18.853-53.109-27.33-0.12932-27.276-0.0851-51.376 0.16458-4.3197 8.7548-7.0013 18.183-10.371 27.324-2.9263 7.8812-4.4166 16.223-4.4 24.63 4.5086 1.4742 12.161-1.1776 13.99 2l0.19242 4.2202c-2.2018 3.1642-2.1958 3.1498-9.4424 3.1498-14.733 0.0159-29.467-0.0558-44.2-0.11-2.6233-0.32027-5.173-1.0845-7.54-2.26l1-5c6.4596-0.37315 12.228-2.1661 18-5 3.66-4.98 6.33-10.5 8.78-16.14 54.609-152.14 54.069-156.04 65.53-159.24zm-6.31 53.38c-9.4045 25.188-9.4286 25.178-20 57h41c-10.251-31.679-10.264-31.653-19-57zm-715.5-53.69c3.58 0.98 4.4 2.63 6.5 5.69 1.37 2.9 2.47 5.89 3.57 8.9 16.852 43.362 16.972 43.343 50.3 130.19 7 19.32 7 19.32 20.38 33.85 3.7846 1.027 7.6885 1.5482 11.61 1.55 2.14 0.5 2.14 0.5 3.43 2.54l0.71 1.97c-4.23 4.23-11.94 3.13-17.6 3.14-15.167-0.0153-24.973-0.24744-40.18-0.71-2.63-0.51-5.1593-0.70513-5.22-3.43 1-3 1-3 2.6-4.43 1.62-1.46 1.62-1.46 1.37-3.49-3.6544-10.263-3.6525-10.263-18.97-50.08-24.099-0.29052-24.123-0.36383-45.84-0.26-18.521 52.255-5.2242 14.455-19.16 53.26 4.3661 1.8142 13.254-0.0623 14 2l1 3c-6.1116 8.8177-50.871 4.1464-61 3-1-1-1-1-1.06-3.56l0.06-2.44c8.3584-0.5989 16.744-1.9711 22.34-8.82 22.13-52.472 42.127-105.82 62.12-159.13 4.44-11.49 4.44-11.49 9.04-12.75zm-6.5 53.69c-4.7614 12.528-9.3551 25.119-13.78 37.77-2.2136 6.3043-1.4232 4.2407-6.2478 19.23h40.028c1.25-1.96 1.25-1.96 0.49-4.06-0.64161-1.8294-1.2807-3.6598-1.92-5.49-5.4717-15.834-11.338-31.534-16.57-47.45z" stroke="#000" stroke-width="1.0016"/><path d="m1288.4 131.5c2.8 0.57 3.77 1.21 5.44 3.5l56.07 144.32c5.9 16.97 5.9 16.97 17.73 29.73 5.19 2.2 10.62 2.62 16.2 2.95l1 4c-3.39 2.26-4.56 2.25-8.53 2.26-16.32 0.0353-32.64 2e-3 -48.96 0-2.5-0.26-2.5-0.26-5.5-2.26 0.57-3.32 1.57-4.73 4-7-2.2337-9.137-4.9104-17.038-18-52h-52c-2.5419 9.3891-6.0378 18.462-9.42 27.57-5.14 12.46-5.14 12.46-4.58 25.43 4.0889 1.7404 12.375-1.1259 13 2l1 5.5191c-30.378 0.41321-30.669 0.86664-61 0.48087-0.63-1.87-0.63-1.87-1-4 1.2388-3.7306 5.91-2.71 9.88-3.24 5.73-1.4 5.7469-1.3788 13.37-7.95 63.706-167.13 60.267-169.16 71.31-171.31zm-5.7294 53.5c-12.785 34.685-12.799 34.629-19.831 57h39c-7.7738-23.246-7.8186-23.289-19.169-57z" stroke="#000" stroke-width="1.0016"/><g transform="matrix(12.97 0 0 12.97 -790.12 -867.65)" clip-rule="evenodd" fill-rule="evenodd"><path d="m100.76 72.645 1.5956-5.7059h2.41l1.6229 5.7059h-1.8353l-0.3052-1.0279h-1.4418l-0.30622 1.0279zm2.8057-4.4422-0.69632 2.2608h1.3376zm17.608 4.4445 1.5956-5.7059h2.4097l1.6234 5.7059h-1.8355l-0.30468-1.0279h-1.4421l-0.30621 1.0279zm2.8057-4.4422-0.69606 2.2608h1.3376zm-17.172 4.4398v-5.7059h3.4693c0.39164 0 0.71034 0.16299 0.96123 0.36287 0.25013 0.19928 0.46507 0.45656 0.55073 0.80664 0.12162 0.49641 0.0946 0.89587 0.0138 1.1695-0.081 0.27394-0.22208 0.50385-0.42325 0.68796-0.20117 0.18411-0.36893 0.32896-0.74502 0.43425 0.14508 0.17221 0.14381 0.17906 0.31514 0.32063 0.2333 0.19244 0.44849 0.2198 1.2465 0.22367l1.3722 5.96e-4v1.6998l-1.3817 0.0042c-1.5038 0.0045-2.0331-0.0092-2.3212-0.31082-0.3623-0.37893-0.75624-0.823-1.3036-1.5779v1.8845zm1.7539-4.2842v1.0523h1.2226c0.0653 0 0.13666-0.02826 0.21238-0.08507 0.0757-0.05652 0.11703-0.19958 0.12162-0.4289-0.0116-0.21861-0.0573-0.36287-0.13641-0.43306-0.0793-0.0699-0.14687-0.10529-0.19964-0.10529zm29.281-1.4193h-3.5795c-0.61805 0-0.98597 0.35216-1.1025 1.0589-0.11601 0.70521 0.21569 1.4797 0.9959 2.3226 0.47271 0.43871 0.39086 0.64632-0.24248 0.62461h-0.83222v-0.0023l-0.44109-5.95e-4c-0.7983-0.0039-1.0135-0.03093-1.2465-0.22367-0.17134-0.14188-0.17032-0.14842-0.31514-0.32063 0.37608-0.10529 0.54385-0.25014 0.74502-0.43425s0.34268-0.41403 0.42325-0.68796c0.0806-0.27364 0.1076-0.67309-0.014-1.1695-0.0856-0.35008-0.30036-0.60736-0.55022-0.80664-0.25089-0.19987-0.56961-0.36287-0.96123-0.36287h-3.4694v5.7059h1.7539v-1.8846c0.54716 0.75488 0.94108 1.199 1.3036 1.5779 0.28787 0.3016 0.81718 0.3245 2.3212 0.31082l0.26083-0.0023v5.95e-4h2.581c0.6981-0.13771 1.0553-0.55858 1.0691-1.2653 0.0125-0.70551-0.33705-1.4414-1.0691-2.1811-0.39979-0.40391-0.32024-0.56125 0.25548-0.56125h2.1139zm-8.8362 1.4193v1.0523h1.2226c0.0658 0 0.13641-0.02826 0.21214-0.08507 0.0757-0.05652 0.11703-0.19958 0.12163-0.4289-0.0116-0.21861-0.0573-0.36287-0.13641-0.43306-0.0793-0.0699-0.14636-0.10529-0.19914-0.10529zm-35.012-1.4217c-0.6183 0-0.9852 0.35216-1.1022 1.0589-0.11601 0.70551 0.19658 1.5053 0.9954 2.3226 0.4541 0.46459 0.39112 0.62461-0.24196 0.62461h-3.5045v1.6998h5.0634c0.7083 0 1.0561-0.55888 1.0691-1.2653 0.013-0.70521-0.34293-1.4324-1.0691-2.1811-0.40591-0.39529-0.31998-0.58148 0.25573-0.56096h2.1728v4.0076h1.5783v-4.0079h2.2034v-1.6983zm23.147 0-0.43422 1.6954-0.48162-1.6954h-1.8103l1.5956 5.7059h1.5632l0.53544-1.9062 0.53492 1.9062h1.5632l1.5956-5.7059h-1.8103l-0.48164 1.6954-0.4342-1.6954z" stroke-width=".27538"/></g></svg>
