<svg width="600" height="600" viewBox="0 0 600 600" fill="none" xmlns="http://www.w3.org/2000/svg">
<path d="M299.97 9C139.338 9 9 139.401 9 300.033C9 460.665 139.338 591.003 299.97 591.003C460.602 591.003 591.003 460.665 591.003 300.033C591.003 139.401 460.602 9 299.97 9Z" stroke="black" stroke-width="10"/>
<path d="M253.278 38.4763L249.829 55.5352L242.429 49.7022L244.373 59.047L227.502 54.5944L240.61 66.0086L231.767 69.5833L240.861 72.5307L228.568 84.8856L245.063 79.2412L243.746 88.6487L250.832 82.3146L255.411 99.1223L258.797 82.0636L266.198 87.8964L264.316 78.6142L281.124 83.0043L268.017 71.5901L276.86 68.0155L267.828 65.0047L280.058 52.6497L263.627 58.2942L264.881 48.8872L257.794 55.2841L253.278 38.4763ZM349.422 39.1034L345.345 55.9736L338.133 49.8906L339.638 59.2349L323.018 54.0921L335.562 66.0713L326.656 69.2694L335.624 72.6566L322.83 84.5099L339.45 79.5549L337.819 88.8373L345.157 82.8163L349.046 99.8125L353.122 82.8789L360.334 89.025L358.829 79.6176L375.386 84.7603L362.78 72.7818L371.749 69.6457L362.78 66.3219L375.574 54.406L358.892 59.2976L360.648 50.0158L353.31 56.0369L349.422 39.1034ZM164.598 76.2311L161.023 93.2271L153.623 87.2691L155.379 96.6764L138.696 91.9727L151.616 103.575L142.71 107.025L151.741 110.161L139.324 122.39L155.818 116.934L154.375 126.341L161.588 120.069L165.978 136.94L169.553 119.944L176.953 125.902L175.134 116.495L191.88 121.136L178.96 109.596L187.803 106.146L178.835 103.01L191.252 90.844L174.758 96.1747L176.138 86.8299L168.926 93.1018L164.598 76.2311ZM437.35 77.9872L433.398 94.9201L426.123 88.7747L427.754 98.2443L411.009 93.1645L423.678 105.018L414.772 108.279L423.74 111.603L411.009 123.519L427.691 118.502L425.998 127.846L433.336 121.763L437.287 138.696L441.238 121.763L448.513 127.909L446.882 118.502L463.565 123.519L450.959 111.666L459.864 108.404L450.896 105.08L463.627 93.2271L447.008 98.1815L448.638 88.8373L441.238 94.9835L437.35 77.9872ZM97.304 148.103L93.7292 165.037L86.3287 159.142L88.1476 168.486L71.4651 163.845L84.3219 175.447L75.4788 178.897L84.5099 181.97L72.0922 194.137L88.5864 188.743L87.2068 198.151L94.4191 191.879L98.8091 208.75L102.321 191.816L109.722 197.649L107.903 188.304L124.648 193.008L111.729 181.343L120.572 177.956L111.603 174.821L123.958 162.654L107.464 168.047L108.906 158.703L101.694 164.911L97.304 148.103ZM503.264 150.675L499.438 167.608L492.1 161.525L493.794 170.995L477.111 166.04L489.843 177.831L480.937 181.092L489.905 184.416L477.3 196.395L493.919 191.252L492.351 200.597L499.626 194.451L503.766 211.384L507.591 194.451L514.866 200.471L513.173 191.064L529.855 195.956L517.124 184.228L526.093 180.904L517.061 177.643L529.667 165.664L513.11 170.806L514.678 161.399L507.34 167.608L503.264 150.675ZM65.319 243.055L61.6187 260.051L54.2182 254.031L55.9743 263.438L39.2291 258.672L52.0859 270.274L43.243 273.723L52.2114 276.922L39.6681 288.963L56.225 283.695L54.7827 293.103L62.0577 286.831L66.1969 303.827L69.8972 286.831L77.235 292.789L75.4788 283.444L92.2868 288.274L79.43 276.483L88.273 273.159L79.3045 270.023L91.785 257.857L75.228 263.125L76.7959 253.78L69.5836 259.989L65.319 243.055ZM534.434 246.316L530.608 263.187L523.27 257.167L524.964 266.511L508.219 261.619L520.95 273.472L512.107 276.734L521.012 279.995L508.407 291.973L525.026 286.831L523.458 296.176L530.733 290.092L534.873 306.963L538.698 290.092L546.036 296.113L544.343 286.705L561.025 291.66L548.231 279.87L557.137 276.546L548.168 273.284L560.774 261.243L544.28 266.449L545.848 257.104L538.51 263.187L534.434 246.316ZM75.9179 343.965L72.1549 360.961L64.8172 354.94L66.5105 364.285L49.7655 359.393L62.5594 371.184L53.6538 374.508L62.6849 377.706L50.079 389.81L66.6359 384.605L65.1308 393.887L72.4057 387.803L76.5451 404.737L80.3708 387.741L87.7085 393.762L85.9524 384.354L102.698 389.246L89.9036 377.455L98.8091 374.131L89.7781 370.933L102.447 358.891L85.827 364.097L87.3949 354.752L80.1199 360.899L75.9179 343.965ZM522.267 347.164L518.504 364.159L511.166 358.202L512.922 367.547L496.177 362.78L509.034 374.445L500.191 377.832L509.159 381.03L496.616 393.134L513.173 387.866L511.668 397.211L518.943 391.002L523.145 407.936L526.845 390.94L534.183 396.96L532.427 387.553L549.172 392.319L536.378 380.654L545.221 377.267L536.19 374.069L548.733 361.965L532.176 367.233L533.681 357.888L526.406 364.097L522.267 347.164ZM125.589 429.384L122.202 446.381L114.676 440.548L116.621 449.892L99.8127 445.376L112.795 456.854L104.015 460.366L113.108 463.376L100.691 475.668L117.185 470.212L115.868 479.494L123.017 473.223L127.533 490.094L130.92 473.035L138.383 478.93L136.501 469.522L153.309 474.038L140.264 462.561L149.045 459.049L140.014 456.038L152.306 443.683L135.874 449.265L137.191 439.858L130.104 446.192L125.589 429.384ZM471.342 431.955L467.265 448.764L459.99 442.68L461.558 452.024L444.875 446.882L457.481 458.923L448.576 462.059L457.481 465.446L444.687 477.299L461.37 472.345L459.614 481.689L467.014 475.668L470.84 492.602L474.979 475.731L482.191 481.877L480.686 472.47L497.243 477.613L484.7 465.696L493.606 462.499L484.7 459.111L497.494 447.258L480.812 452.15L482.568 442.868L475.167 448.889L471.342 431.955ZM205.426 485.64L201.538 502.574L194.263 496.49L195.894 505.898L179.211 500.943L191.88 512.733L183.037 516.057L192.005 519.319L179.336 531.297L195.956 526.218L194.326 535.562L201.663 529.416L205.74 546.349L209.628 529.416L216.903 535.499L215.273 526.092L231.892 531.047L219.161 519.256L228.067 515.932L219.098 512.671L231.767 500.692L215.21 505.773L216.778 496.427L209.503 502.574L205.426 485.64ZM391.567 486.957L387.49 503.891L380.278 497.745L381.846 507.152L365.164 502.072L377.832 513.988L368.864 517.249L377.832 520.573L365.101 532.426L381.721 527.472L380.09 536.817L387.428 530.733L391.379 547.729L395.33 530.796L402.542 536.942L400.974 527.472L417.657 532.615L405.051 520.699L413.957 517.5L404.988 514.113L417.719 502.26L401.1 507.215L402.793 497.87L395.393 503.954L391.567 486.957ZM298.246 505.396L294.295 522.392L287.02 516.308L288.713 525.716L271.968 520.761L284.699 532.552L275.856 535.876L284.825 539.137L272.156 551.116L288.776 546.036L287.208 555.38L294.483 549.171L298.559 566.168L302.448 549.234L309.723 555.255L308.029 545.848L324.712 550.803L311.981 539.012L320.886 535.688L311.918 532.426L324.586 520.448L307.967 525.59L309.597 516.246L302.322 522.392L298.246 505.396Z" fill="black"/>
<path d="M300.002 99.0597L263.376 142.961C276.014 160.727 281.312 179.016 281.312 189.747C267.891 173.566 259.864 167.545 249.829 157.511L223.927 184.416C259.889 201.637 277.926 235.966 277.926 271.905C277.926 292.31 269.716 337.394 225.244 335.499C192.442 331.692 160.349 287.361 157.574 246.568C154.807 205.895 176.047 170.114 205.05 137.254C145.504 171.633 107.339 233.773 107.339 291.974C107.339 411.265 192.913 490.658 300.002 490.658C407.09 490.658 492.665 411.265 492.665 291.974C492.665 233.773 454.499 171.633 394.954 137.254C423.957 170.114 445.196 205.895 442.429 246.568C439.655 287.361 407.562 331.692 374.759 335.499C330.287 337.394 322.078 292.31 322.078 271.905C322.078 235.966 340.114 201.637 376.076 184.416L350.174 157.511C340.14 167.545 332.112 173.566 318.691 189.747C318.691 179.016 323.989 160.727 336.628 142.961L300.002 99.0597Z" fill="black"/>
</svg>
